<svg width="6" height="12" viewBox="0 0 6 12" fill="none" xmlns="http://www.w3.org/2000/svg">
<path d="M5.00446 11.4999C4.87639 11.5003 4.74984 11.4744 4.63412 11.4241C4.51841 11.3738 4.41646 11.3004 4.33577 11.2093L0.195025 6.49542C0.068932 6.35484 0 6.17851 0 5.99654C0 5.81456 0.068932 5.63823 0.195025 5.49765L4.48151 0.783814C4.62703 0.623374 4.83613 0.522478 5.06282 0.503324C5.28952 0.484171 5.51523 0.548328 5.6903 0.681681C5.86537 0.815034 5.97547 1.00666 5.99637 1.21441C6.01727 1.42215 5.94726 1.62899 5.80175 1.78943L1.96963 6.00046L5.67315 10.2115C5.77799 10.3268 5.84458 10.4672 5.86505 10.6162C5.88552 10.7651 5.85902 10.9163 5.78867 11.0518C5.71833 11.1873 5.60708 11.3016 5.46811 11.381C5.32913 11.4604 5.16823 11.5017 5.00446 11.4999Z" fill="#2B2B2B"/>
</svg>
