<svg width="6" height="12" viewBox="0 0 6 12" fill="none" xmlns="http://www.w3.org/2000/svg">
<path d="M0.995538 11.4999C1.12361 11.5003 1.25016 11.4744 1.36588 11.4241C1.48159 11.3738 1.58354 11.3004 1.66423 11.2093L5.80498 6.49542C5.93107 6.35484 6 6.17851 6 5.99654C6 5.81456 5.93107 5.63823 5.80498 5.49765L1.51849 0.783814C1.37297 0.623374 1.16387 0.522478 0.937177 0.503324C0.710485 0.484171 0.484775 0.548328 0.3097 0.681681C0.134626 0.815034 0.0245285 1.00666 0.00362778 1.21441C-0.0172729 1.42215 0.0527353 1.62899 0.198252 1.78943L4.03037 6.00046L0.326847 10.2115C0.222013 10.3268 0.155421 10.4672 0.13495 10.6162C0.114478 10.7651 0.140983 10.9163 0.211329 11.0518C0.281675 11.1873 0.392918 11.3016 0.531895 11.381C0.670871 11.4604 0.831765 11.5017 0.995538 11.4999Z" fill="#F2766A"/>
</svg>
